<?xml version="1.0" encoding="utf-8"?>
<!-- Generator: Adobe Illustrator 19.1.0, SVG Export Plug-In . SVG Version: 6.00 Build 0)  -->
<svg version="1.1" id="Isolation_Mode" xmlns="http://www.w3.org/2000/svg" xmlns:xlink="http://www.w3.org/1999/xlink" x="0px"
	 y="0px" viewBox="0 0 38 65" style="enable-background:new 0 0 38 65;" xml:space="preserve">
<style type="text/css">
	.st0{fill:#FFFFFF;}
</style>
<path class="st0" d="M37.1,36.9c-0.7-0.5-1.6-0.3-2.1,0.4L20.5,58.5V1.6c0-0.8-0.7-1.5-1.5-1.5c-0.8,0-1.5,0.7-1.5,1.5v56.9L3,37.3
	c-0.5-0.7-1.4-0.9-2.1-0.4c-0.7,0.5-0.9,1.4-0.4,2.1l17.2,25.2c0.3,0.4,0.7,0.7,1.2,0.7c0.5,0,1-0.2,1.2-0.7L37.5,39
	C37.9,38.3,37.8,37.4,37.1,36.9z"/>
</svg>
